<svg xmlns="http://www.w3.org/2000/svg" width="16" height="16" viewBox="0 0 16 16">
  <g fill="none" fill-rule="evenodd">
    <rect width="15" height="15" x=".5" y=".5" stroke="#B4BFCC" rx="7.5"/>
    <path fill="#828A99" d="M5.67342187,6.34423828 L6.78523828,6.34423828 C6.83357812,5.65673828 7.31160547,5.22167969 8.05281641,5.22167969 C8.78865625,5.22167969 9.26668359,5.65136719 9.26668359,6.2421875 C9.26668359,6.78466797 9.03572656,7.09082031 8.38582422,7.48291016 C7.64998437,7.92333984 7.32234766,8.40673828 7.34920312,9.18017578 L7.35457422,9.58837891 L8.46639062,9.58837891 L8.46639062,9.26611328 C8.46639062,8.72363281 8.66512109,8.43896484 9.35799219,8.03076172 C10.0669766,7.60644531 10.4859219,7.02099609 10.4859219,6.19384766 C10.4859219,5.02832031 9.52986719,4.18505859 8.11189844,4.18505859 C6.55428125,4.18505859 5.72176172,5.10888672 5.67342187,6.34423828 Z M7.97762109,12.1235352 C8.47176172,12.1235352 8.80476953,11.7958984 8.80476953,11.3071289 C8.80476953,10.8076172 8.47176172,10.4799805 7.97762109,10.4799805 C7.48348047,10.4799805 7.14510156,10.8076172 7.14510156,11.3071289 C7.14510156,11.7958984 7.48348047,12.1235352 7.97762109,12.1235352 Z"/>
  </g>
</svg>